<svg viewBox="0 0 898 505" xmlns="http://www.w3.org/2000/svg">
<path d="M863.251 239.392H894.911V443.6C888.527 463.377 881.114 478.554 872.672 489.133C864.229 499.711 855.941 505 847.807 505C836.276 505 825.928 494.422 816.765 473.265C807.602 451.649 800.395 421.753 795.144 383.579C789.996 344.945 787.422 301.252 787.422 252.5C787.422 203.748 789.996 160.285 795.144 122.111C800.395 83.4768 807.653 53.5815 816.92 32.4248C826.289 10.8082 836.842 0 848.579 0C859.184 0 868.656 8.04864 876.996 24.1461C885.438 39.7836 892.44 62.7801 897.999 93.1353L874.679 184.891C867.884 149.476 859.802 131.769 850.433 131.769C842.402 131.769 836.018 142.577 831.282 164.194C826.546 185.811 824.178 215.246 824.178 252.5C824.178 288.834 826.495 318.04 831.128 340.116C835.864 362.193 842.144 373.231 849.969 373.231C854.602 373.231 859.03 369.322 863.251 361.503V239.392Z"/>
<path d="M768.006 11.0364V493.96H738.045L696.964 274.575V493.96H661.443V11.0364H691.404L732.485 230.422V11.0364H768.006Z"/>
<path d="M601.283 11.0364H637.731V493.96H601.283V11.0364Z"/>
<path d="M467.506 11.0364H520.787C532.833 11.0364 543.438 20.9248 552.601 40.7017C561.867 60.0187 569.023 87.8442 574.068 124.178C579.216 160.513 581.79 203.286 581.79 252.498C581.79 301.71 579.216 344.484 574.068 380.818C569.023 417.152 561.867 445.208 552.601 464.985C543.438 484.301 532.833 493.96 520.787 493.96H467.506V11.0364ZM519.243 367.02C527.067 367.02 533.296 357.132 537.93 337.355C542.666 317.118 545.034 288.832 545.034 252.498C545.034 216.164 542.666 188.108 537.93 168.331C533.296 148.095 527.067 137.976 519.243 137.976H503.953V367.02H519.243Z"/>
<path d="M443.761 11.0364V493.96H413.8L372.72 274.575V493.96H337.199V11.0364H367.16L408.241 230.422V11.0364H443.761Z"/>
<path d="M317 371.159V493.96H227.117V11.0364H314.992V133.837H262.947V190.408H308.66V307.689H262.947V371.159H317Z"/>
<path d="M125.617 11.0364H162.065V367.71H210.867V493.96H125.617V11.0364Z"/>
<path d="M86.4853 241.46C92.8687 252.038 97.8107 267.446 101.311 287.683C104.812 307.919 106.562 332.295 106.562 360.811C106.562 403.124 102.65 436.009 94.8249 459.465C87 482.462 75.6746 493.96 60.8486 493.96H0V11.0364H57.7598C72.174 11.0364 83.0361 22.5346 90.3462 45.5309C97.7592 68.5273 101.466 99.1124 101.466 137.286C101.466 159.823 100.179 180.06 97.6048 197.997C95.1338 215.934 91.4273 230.422 86.4853 241.46ZM35.8296 124.868V196.617H52.8178C60.7456 196.617 64.7095 184.659 64.7095 160.743C64.7095 136.826 60.7456 124.868 52.8178 124.868H35.8296ZM57.7598 380.128C65.7906 380.128 69.806 367.48 69.806 342.184C69.806 316.888 65.7906 304.24 57.7598 304.24H35.8296V380.128H57.7598Z"/>
</svg>
