<svg viewBox="0 0 898 505" xmlns="http://www.w3.org/2000/svg">
<path d="M754.77 505C729.288 505 704.391 500.836 680.08 492.507C656.062 483.739 636.291 472.123 620.768 457.657L654.158 344.558C668.804 357.271 685.206 367.573 703.366 375.463C721.526 382.915 738.953 386.641 755.649 386.641C770.001 386.641 780.253 384.669 786.404 380.723C792.555 376.34 795.63 369.983 795.63 361.655C795.63 352.01 791.529 344.777 783.328 339.955C775.42 335.133 762.239 329.873 743.786 324.174C720.061 316.722 700.29 308.831 684.474 300.503C668.657 291.735 654.891 277.708 643.175 258.419C631.459 238.693 625.6 212.172 625.6 178.856C625.6 149.924 631.019 123.622 641.856 99.9504C652.694 76.2786 668.803 57.6481 690.185 44.0588C711.86 30.4695 738.075 23.6748 768.83 23.6748C789.918 23.6748 810.568 27.1817 830.778 34.1956C851.281 40.771 869.295 50.6342 884.819 63.7852L853.625 176.226C823.456 153.431 794.898 142.033 767.951 142.033C741.297 142.033 727.97 151.677 727.97 170.966C727.97 180.171 731.924 187.185 739.832 192.007C747.741 196.391 760.775 201.213 778.935 206.473C802.367 213.049 822.138 220.72 838.247 229.487C854.357 237.816 868.27 251.625 879.986 270.913C891.995 290.201 897.999 316.503 897.999 349.819C897.999 378.751 892.581 405.053 881.743 428.724C870.906 451.958 854.65 470.588 832.975 484.616C811.593 498.205 785.525 505 754.77 505Z" />
<path d="M526.538 0C543.526 0 557.439 7.67141 568.276 23.0142C579.113 38.357 584.532 58.741 584.532 84.1662C584.532 95.5637 583.507 106.961 581.457 118.359C579.406 129.756 574.72 147.072 567.397 170.305L536.643 268.28H475.133L497.101 157.154C488.021 150.578 480.991 141.154 476.012 128.879C471.033 116.167 468.543 101.262 468.543 84.1662C468.543 58.741 473.962 38.357 484.799 23.0142C495.636 7.67141 509.549 0 526.538 0Z" />
<path d="M237.958 154.525H147.891V34.1938H431.713V154.525H341.645V494.478H237.958V154.525Z" />
<path d="M0 34.1938H103.687V494.478H0V34.1938Z" />
</svg>
