<svg viewBox="0 0 898 505" xmlns="http://www.w3.org/2000/svg">
<path d="M727.529 137.286H648.285V11.0364H898.001V137.286H818.757V493.96H727.529V137.286Z" />
<path d="M483.449 504.998C441.958 504.998 409.616 484.991 386.423 444.978C363.229 404.964 351.633 348.853 351.633 276.644V11.0364H442.86V271.815C442.86 307.229 446.339 332.985 453.297 349.083C460.513 365.18 470.821 373.229 484.222 373.229C497.622 373.229 507.802 365.18 514.76 349.083C521.975 332.985 525.583 307.229 525.583 271.815V11.0364H615.264V276.644C615.264 348.853 603.668 404.964 580.474 444.978C557.281 484.991 524.939 504.998 483.449 504.998Z" />
<path d="M152.69 505C123.569 505 97.4123 494.192 74.2189 472.575C51.0255 450.959 32.8573 421.063 19.7144 382.889C6.57146 344.255 0 300.792 0 252.5C0 204.208 6.57146 160.974 19.7144 122.8C32.8573 84.1666 51.0255 54.0414 74.2189 32.4248C97.4123 10.8082 123.569 0 152.69 0C181.81 0 207.967 10.8082 231.161 32.4248C254.354 54.0414 272.522 84.1666 285.665 122.8C298.808 160.974 305.38 204.208 305.38 252.5C305.38 300.792 298.808 344.255 285.665 382.889C272.522 421.063 254.354 450.959 231.161 472.575C207.967 494.192 181.81 505 152.69 505ZM152.69 373.231C164.029 373.231 174.208 368.402 183.228 358.743C192.505 348.625 199.85 334.597 205.262 316.66C210.673 298.263 213.379 276.876 213.379 252.5C213.379 228.124 210.673 206.967 205.262 189.03C199.85 170.633 192.505 156.605 183.228 146.947C174.208 136.828 164.029 131.769 152.69 131.769C141.351 131.769 131.043 136.828 121.765 146.947C112.746 156.605 105.53 170.633 100.118 189.03C94.7064 206.967 92.0005 228.124 92.0005 252.5C92.0005 276.876 94.7064 298.263 100.118 316.66C105.53 334.597 112.746 348.625 121.765 358.743C131.043 368.402 141.351 373.231 152.69 373.231Z" />
</svg>
