<svg viewBox="0 0 898 505" xmlns="http://www.w3.org/2000/svg">
<path d="M724.041 11.0364H805.144C823.48 11.0364 839.622 20.9248 853.57 40.7017C867.675 60.0186 878.567 87.8442 886.246 124.178C894.082 160.513 898 203.286 898 252.498C898 301.71 894.082 344.484 886.246 380.818C878.567 417.152 867.675 445.208 853.57 464.984C839.622 484.301 823.48 493.96 805.144 493.96H724.041V11.0364ZM802.793 367.02C814.704 367.02 824.185 357.132 831.238 337.355C838.447 317.118 842.051 288.832 842.051 252.498C842.051 216.164 838.447 188.108 831.238 168.331C824.185 148.095 814.704 137.976 802.793 137.976H779.52V367.02H802.793Z" />
<path d="M687.906 11.0364V493.96H642.301L579.77 274.575V493.96H525.701V11.0364H571.307L633.838 230.422V11.0364H687.906Z" />
<path d="M439.036 409.793H376.505L365.456 493.96H309.037L380.972 11.0364H435.51L507.445 493.96H450.085L439.036 409.793ZM423.756 292.512L407.771 171.091L391.785 292.512H423.756Z" />
<path d="M207.684 137.286H159.492V11.0364H311.354V137.286H263.163V493.96H207.684V137.286Z" />
<path d="M71.6994 505C58.0648 505 44.7436 500.631 31.7358 491.892C18.8848 482.694 8.30616 470.506 0 455.328L17.8661 336.667C25.7021 350.005 34.4784 360.813 44.1951 369.092C53.9117 376.91 63.2365 380.82 72.1696 380.82C79.8489 380.82 85.3341 378.75 88.6252 374.611C91.9163 370.011 93.5619 363.342 93.5619 354.604C93.5619 344.485 91.3678 336.897 86.9796 331.837C82.7482 326.778 75.6958 321.259 65.8224 315.28C53.1281 307.461 42.5495 299.183 34.0866 290.444C25.6237 281.245 18.2579 266.528 11.9891 246.291C5.72028 225.594 2.58588 197.769 2.58588 162.814C2.58588 132.459 5.4852 104.863 11.2838 80.0273C17.0825 55.1912 25.7021 35.6443 37.1427 21.3866C48.7399 7.12885 62.7664 0 79.222 0C90.5059 0 101.555 3.67942 112.368 11.0382C123.339 17.9371 132.977 28.2854 141.283 42.0832L124.592 160.055C108.45 136.138 93.1701 124.18 78.7518 124.18C64.4903 124.18 57.3595 134.299 57.3595 154.536C57.3595 164.194 59.4753 171.553 63.7067 176.612C67.9382 181.211 74.9122 186.27 84.6288 191.79C97.1665 198.688 107.745 206.737 116.365 215.936C124.984 224.674 132.428 239.162 138.697 259.399C145.123 279.636 148.336 307.231 148.336 342.186C148.336 372.541 145.436 400.137 139.638 424.973C133.839 449.349 125.141 468.896 113.544 483.613C102.103 497.871 88.155 505 71.6994 505Z" />
</svg>
