<svg viewBox="0 0 898 505" xmlns="http://www.w3.org/2000/svg">
<path d="M801.209 11.0364C820.83 11.0364 837.923 18.3952 852.487 33.1129C867.051 47.8306 878.277 68.9872 886.166 96.5828C894.055 124.178 897.999 156.373 897.999 193.168C897.999 229.962 894.055 262.157 886.166 289.752C878.277 317.348 867.051 338.504 852.487 353.222C837.923 367.94 820.83 375.299 801.209 375.299H770.564V493.96H698.957V11.0364H801.209ZM796.658 249.739C806.367 249.739 813.649 244.909 818.504 235.251C823.358 225.133 825.786 211.105 825.786 193.168C825.786 175.23 823.358 161.433 818.504 151.774C813.649 141.656 806.367 136.597 796.658 136.597H770.564V249.739H796.658Z"/>
<path d="M540.991 505C518.133 505 497.602 494.192 479.397 472.575C461.192 450.959 446.931 421.063 436.615 382.889C426.299 344.255 421.141 300.792 421.141 252.5C421.141 204.208 426.299 160.974 436.615 122.8C446.931 84.1666 461.192 54.0414 479.397 32.4248C497.602 10.8082 518.133 0 540.991 0C563.848 0 584.379 10.8082 602.585 32.4248C620.79 54.0414 635.05 84.1666 645.367 122.8C655.683 160.974 660.841 204.208 660.841 252.5C660.841 300.792 655.683 344.255 645.367 382.889C635.05 421.063 620.79 450.959 602.585 472.575C584.379 494.192 563.848 505 540.991 505ZM540.991 373.231C549.891 373.231 557.881 368.402 564.961 358.743C572.243 348.625 578.008 334.597 582.256 316.66C586.503 298.263 588.627 276.876 588.627 252.5C588.627 228.124 586.503 206.967 582.256 189.03C578.008 170.633 572.243 156.605 564.961 146.947C557.881 136.828 549.891 131.769 540.991 131.769C532.09 131.769 523.999 136.828 516.717 146.947C509.638 156.605 503.974 170.633 499.726 189.03C495.478 206.967 493.354 228.124 493.354 252.5C493.354 276.876 495.478 298.263 499.726 316.66C503.974 334.597 509.638 348.625 516.717 358.743C523.999 368.402 532.09 373.231 540.991 373.231Z"/>
<path d="M268.074 137.286H205.873V11.0364H401.881V137.286H339.68V493.96H268.074V137.286Z"/>
<path d="M92.5425 505C74.9443 505 57.7506 500.631 40.9614 491.892C24.3746 482.694 10.7208 470.506 0 455.328L23.0598 336.667C33.1737 350.005 44.5013 360.813 57.0426 369.092C69.5839 376.91 81.6194 380.82 93.1493 380.82C103.061 380.82 110.141 378.75 114.389 374.611C118.636 370.011 120.76 363.342 120.76 354.604C120.76 344.485 117.928 336.897 112.265 331.837C106.803 326.778 97.7006 321.259 84.957 315.28C68.5725 307.461 54.9187 299.183 43.9956 290.444C33.0726 281.245 23.5655 266.528 15.4743 246.291C7.38317 225.594 3.3376 197.769 3.3376 162.814C3.3376 132.459 7.07975 104.863 14.5641 80.0273C22.0484 55.1912 33.1737 35.6443 47.94 21.3866C62.9087 7.12885 81.0126 0 102.252 0C116.816 0 131.077 3.67942 145.034 11.0382C159.193 17.9371 171.633 28.2854 182.354 42.0832L160.812 160.055C139.977 136.138 120.255 124.18 101.645 124.18C83.2377 124.18 74.034 134.299 74.034 154.536C74.034 164.194 76.7648 171.553 82.2263 176.612C87.6878 181.211 96.6892 186.27 109.23 191.79C125.413 198.688 139.067 206.737 150.192 215.936C161.317 224.674 170.925 239.162 179.017 259.399C187.31 279.636 191.457 307.231 191.457 342.186C191.457 372.541 187.715 400.137 180.23 424.973C172.746 449.349 161.52 468.896 146.551 483.613C131.785 497.871 113.782 505 92.5425 505Z"/>
</svg>
