<svg viewBox="0 0 898 505" xmlns="http://www.w3.org/2000/svg">
<path d="M661.453 505C616.34 505 575.817 494.192 539.886 472.575C503.955 450.959 475.809 421.063 455.448 382.889C435.087 344.255 424.906 300.792 424.906 252.5C424.906 204.208 435.087 160.974 455.448 122.8C475.809 84.1666 503.955 54.0414 539.886 32.4248C575.817 10.8082 616.34 0 661.453 0C706.567 0 747.089 10.8082 783.02 32.4248C818.951 54.0414 847.097 84.1666 867.458 122.8C887.819 160.974 898 204.208 898 252.5C898 300.792 887.819 344.255 867.458 382.889C847.097 421.063 818.951 450.959 783.02 472.575C747.089 494.192 706.567 505 661.453 505ZM661.453 373.231C679.019 373.231 694.789 368.402 708.762 358.743C723.135 348.625 734.513 334.597 742.897 316.66C751.281 298.263 755.473 276.876 755.473 252.5C755.473 228.124 751.281 206.967 742.897 189.03C734.513 170.633 723.135 156.605 708.762 146.947C694.789 136.828 679.019 131.769 661.453 131.769C643.887 131.769 627.917 136.828 613.545 146.947C599.572 156.605 588.393 170.633 580.009 189.03C571.625 206.967 567.433 228.124 567.433 252.5C567.433 276.876 571.625 298.263 580.009 316.66C588.393 334.597 599.572 348.625 613.545 358.743C627.917 368.402 643.887 373.231 661.453 373.231Z" />
<path d="M122.765 137.286H0V11.0364H386.859V137.286H264.094V493.96H122.765V137.286Z" />
</svg>
