<svg viewBox="0 0 898 505" xmlns="http://www.w3.org/2000/svg">
<path d="M849.063 505C840.257 505 831.75 500.401 823.544 491.202C815.338 482.004 808.583 470.046 803.279 455.328L814.688 336.667C819.691 350.005 825.246 360.813 831.35 369.092C837.555 376.91 843.559 380.82 849.363 380.82C852.766 380.82 855.418 379.9 857.319 378.06C859.321 375.76 860.772 372.771 861.673 369.092C862.573 364.952 863.024 360.123 863.024 354.604C863.024 345.865 861.973 338.966 859.871 333.907C857.77 328.848 854.968 324.709 851.465 321.489C848.063 317.81 844.31 314.13 840.207 310.451C836.104 306.311 831.951 301.022 827.747 294.583C823.644 288.144 819.842 279.636 816.339 269.057C812.936 258.479 810.184 244.681 808.083 227.664C805.981 210.187 804.931 188.57 804.931 162.814C804.931 132.919 806.732 105.783 810.334 81.4071C814.037 56.5711 819.491 36.7942 826.697 22.0765C834.002 7.35881 843.059 0 853.867 0C860.972 0 867.977 3.44943 874.882 10.3483C881.788 17.2472 887.992 27.8255 893.496 42.0832L882.838 160.055C877.634 148.097 872.581 139.128 867.677 133.149C862.874 127.17 858.17 124.18 853.567 124.18C850.164 124.18 847.462 125.56 845.461 128.32C843.459 131.079 842.008 134.759 841.107 139.358C840.307 143.957 839.906 149.016 839.906 154.536C839.906 162.814 840.957 169.483 843.059 174.542C845.16 179.142 847.912 183.051 851.315 186.27C854.818 189.49 858.62 192.939 862.723 196.619C866.927 200.298 871.08 205.357 875.183 211.796C879.286 218.235 883.039 226.744 886.441 237.322C889.944 247.901 892.746 261.698 894.847 278.716C896.949 295.733 898 316.89 898 342.186C898 371.621 896.148 398.757 892.445 423.593C888.843 447.969 883.439 467.746 876.233 482.924C869.028 497.641 859.971 505 849.063 505Z"/>
<path d="M692.031 493.96V11.0361H742.619C752.426 11.0361 760.882 18.3949 767.988 33.1126C775.193 47.8303 780.747 68.9869 784.65 96.5826C788.553 123.718 790.504 155.913 790.504 193.167C790.504 230.421 788.553 262.616 784.65 289.752C780.747 316.428 775.193 336.895 767.988 351.152C760.882 365.41 752.426 372.539 742.619 372.539H711.696L727.458 305.62V493.96H692.031ZM754.928 493.96L729.109 318.037H766.637L792.756 493.96H754.928ZM727.458 323.557L711.696 249.738H740.367C745.271 249.738 748.873 244.679 751.175 234.561C753.577 224.442 754.778 210.644 754.778 193.167C754.778 175.69 753.577 161.892 751.175 151.774C748.873 141.655 745.271 136.596 740.367 136.596H711.696L727.458 62.7779V323.557Z"/>
<path d="M617.448 190.408H664.282V307.689H617.448V190.408ZM619.849 371.159H672.388V493.96H585.023V11.0361H670.437V133.837H619.849V371.159Z"/>
<path d="M458.373 493.96V11.0361H487.495L540.934 304.93H527.424V11.0361H561.95V493.96H532.828L479.389 200.066H492.899V493.96H458.373Z"/>
<path d="M376.968 493.96V137.286H346.195V11.0361H443.167V137.286H412.394V493.96H376.968Z"/>
<path d="M237.764 493.96V11.0361H288.351C298.158 11.0361 306.615 18.3949 313.72 33.1126C320.925 47.8303 326.48 68.9869 330.382 96.5826C334.285 123.718 336.237 155.913 336.237 193.167C336.237 230.421 334.285 262.616 330.382 289.752C326.48 316.428 320.925 336.895 313.72 351.152C306.615 365.41 298.158 372.539 288.351 372.539H257.428L273.19 305.62V493.96H237.764ZM300.66 493.96L274.841 318.037H312.369L338.488 493.96H300.66ZM273.19 323.557L257.428 249.738H286.1C291.003 249.738 294.606 244.679 296.908 234.561C299.309 224.442 300.51 210.644 300.51 193.167C300.51 175.69 299.309 161.892 296.908 151.774C294.606 141.655 291.003 136.596 286.1 136.596H257.428L273.19 62.7779V323.557Z"/>
<path d="M99.4082 493.96L145.342 11.0361H180.168L226.102 493.96H189.475L155.55 88.304H169.36L135.435 493.96H99.4082ZM126.728 409.793L135.735 292.512H184.071L193.078 409.793H126.728Z"/>
<path d="M0 493.96V11.0361H50.5876C60.3948 11.0361 68.8511 18.3949 75.9564 33.1126C83.1617 47.8303 88.7158 68.9869 92.6187 96.5826C96.5216 123.718 98.4731 155.913 98.4731 193.167C98.4731 230.421 96.5216 262.616 92.6187 289.752C88.7158 316.888 83.1617 338.044 75.9564 353.222C68.8511 367.94 60.3948 375.299 50.5876 375.299H19.6646L35.4263 305.62V493.96H0ZM35.4263 323.557L19.6646 249.738H48.3359C53.2395 249.738 56.8422 244.679 59.1439 234.561C61.5457 224.442 62.7466 210.644 62.7466 193.167C62.7466 175.69 61.5457 161.892 59.1439 151.774C56.8422 141.655 53.2395 136.596 48.3359 136.596H19.6646L35.4263 62.7779V323.557Z"/>
</svg>
