<svg viewBox="0 0 898 505" xmlns="http://www.w3.org/2000/svg">
<path d="M838.162 505C827.394 505 816.993 500.401 806.959 491.202C796.925 482.004 788.665 470.046 782.18 455.328L796.129 336.667C802.248 350.005 809.039 360.813 816.503 369.092C824.09 376.91 831.432 380.82 838.529 380.82C842.69 380.82 845.932 379.9 848.257 378.06C850.705 375.76 852.479 372.771 853.58 369.092C854.682 364.952 855.232 360.123 855.232 354.604C855.232 345.865 853.947 338.966 851.378 333.907C848.808 328.848 845.382 324.709 841.099 321.489C836.939 317.81 832.35 314.13 827.333 310.451C822.316 306.311 817.238 301.022 812.098 294.583C807.081 288.144 802.431 279.636 798.148 269.057C793.988 258.479 790.623 244.681 788.053 227.664C785.484 210.187 784.199 188.57 784.199 162.814C784.199 132.919 786.401 105.783 790.806 81.4071C795.334 56.5711 802.003 36.7942 810.813 22.0765C819.746 7.35881 830.82 0 844.036 0C852.724 0 861.289 3.44943 869.733 10.3483C878.176 17.2472 885.763 27.8255 892.493 42.0832L879.461 160.055C873.098 148.097 866.918 139.128 860.922 133.149C855.049 127.17 849.297 124.18 843.669 124.18C839.508 124.18 836.204 125.56 833.757 128.32C831.31 131.079 829.535 134.759 828.434 139.358C827.455 143.957 826.966 149.016 826.966 154.536C826.966 162.814 828.25 169.483 830.82 174.542C833.39 179.142 836.755 183.051 840.915 186.27C845.198 189.49 849.848 192.939 854.865 196.619C860.005 200.298 865.083 205.357 870.1 211.796C875.117 218.235 879.705 226.744 883.866 237.322C888.149 247.901 891.575 261.698 894.145 278.716C896.714 295.733 897.999 316.89 897.999 342.186C897.999 371.621 895.735 398.757 891.208 423.593C886.803 447.969 880.195 467.746 871.385 482.924C862.574 497.641 851.5 505 838.162 505Z"/>
<path d="M690.717 493.96V137.286H653.09V11.0361H771.663V137.286H734.035V493.96H690.717Z"/>
<path d="M554.203 493.96V11.0361H597.521V367.71H655.522V493.96H554.203Z"/>
<path d="M464.414 504.998C444.714 504.998 429.357 484.991 418.344 444.977C407.331 404.964 401.824 348.853 401.824 276.644V11.0361H445.142V271.815C445.142 308.609 446.916 334.825 450.465 350.462C454.013 365.64 458.786 373.229 464.782 373.229C470.9 373.229 475.672 365.64 479.098 350.462C482.647 334.825 484.421 308.609 484.421 271.815V11.0361H527.005V276.644C527.005 348.853 521.498 404.964 510.485 444.977C499.472 484.991 484.115 504.998 464.414 504.998Z"/>
<path d="M322.856 505C312.087 505 301.686 500.401 291.652 491.202C281.618 482.004 273.358 470.046 266.873 455.328L280.823 336.667C286.941 350.005 293.732 360.813 301.197 369.092C308.783 376.91 316.125 380.82 323.223 380.82C327.383 380.82 330.626 379.9 332.951 378.06C335.398 375.76 337.172 372.771 338.274 369.092C339.375 364.952 339.926 360.123 339.926 354.604C339.926 345.865 338.641 338.966 336.071 333.907C333.501 328.848 330.075 324.709 325.792 321.489C321.632 317.81 317.043 314.13 312.026 310.451C307.009 306.311 301.931 301.022 296.792 294.583C291.775 288.144 287.125 279.636 282.842 269.057C278.681 258.479 275.316 244.681 272.747 227.664C270.177 210.187 268.892 188.57 268.892 162.814C268.892 132.919 271.095 105.783 275.5 81.4071C280.027 56.5711 286.696 36.7942 295.507 22.0765C304.439 7.35881 315.514 0 328.729 0C337.417 0 345.983 3.44943 354.426 10.3483C362.869 17.2472 370.456 27.8255 377.186 42.0832L364.154 160.055C357.791 148.097 351.612 139.128 345.616 133.149C339.742 127.17 333.991 124.18 328.362 124.18C324.202 124.18 320.898 125.56 318.45 128.32C316.003 131.079 314.229 134.759 313.127 139.358C312.149 143.957 311.659 149.016 311.659 154.536C311.659 162.814 312.944 169.483 315.514 174.542C318.083 179.142 321.448 183.051 325.609 186.27C329.892 189.49 334.541 192.939 339.559 196.619C344.698 200.298 349.776 205.357 354.793 211.796C359.81 218.235 364.399 226.744 368.559 237.322C372.842 247.901 376.268 261.698 378.838 278.716C381.408 295.733 382.693 316.89 382.693 342.186C382.693 371.621 380.429 398.757 375.901 423.593C371.496 447.969 364.888 467.746 356.078 482.924C347.268 497.641 336.193 505 322.856 505Z"/>
<path d="M183.754 190.408H241.021V307.689H183.754V190.408ZM186.691 371.159H250.933V493.96H144.107V11.0361H248.547V133.837H186.691V371.159Z"/>
<path d="M0 493.96V11.0361H61.8561C73.8479 11.0361 84.1879 18.3949 92.8759 33.1126C101.686 47.8303 108.478 68.9869 113.25 96.5826C118.022 123.718 120.408 155.913 120.408 193.167C120.408 230.421 118.022 262.616 113.25 289.752C108.478 316.428 101.686 336.895 92.8759 351.152C84.1879 365.41 73.8479 372.539 61.8561 372.539H24.0449L43.3176 305.62V493.96H0ZM76.9071 493.96L45.3366 318.037H91.2239L123.161 493.96H76.9071ZM43.3176 323.557L24.0449 249.738H59.1028C65.0988 249.738 69.5039 244.679 72.3184 234.561C75.2552 224.442 76.7235 210.644 76.7235 193.167C76.7235 175.69 75.2552 161.892 72.3184 151.774C69.5039 141.655 65.0988 136.596 59.1028 136.596H24.0449L43.3176 62.7779V323.557Z"/>
</svg>
