<svg viewBox="0 0 898 505" xmlns="http://www.w3.org/2000/svg">
<path d="M839.852 190.408H889.42V307.689H839.852V190.408ZM842.394 371.159H898V493.96H805.535V11.0361H895.934V133.837H842.394V371.159Z"/>
<path d="M701.125 493.96V11.0361H738.619V367.71H788.823V493.96H701.125Z"/>
<path d="M571.895 493.96V11.0361H631.313C646.671 11.0361 658.004 22.9943 665.312 46.9105C672.62 70.3668 676.274 100.492 676.274 137.286C676.274 161.662 674.686 183.509 671.508 202.826C668.437 221.683 663.935 236.63 658.004 247.669C652.073 258.707 644.765 264.226 636.079 264.226L639.257 226.972C647.942 226.972 655.409 232.261 661.658 242.839C668.013 253.418 672.885 268.825 676.274 289.062C679.77 308.839 681.517 332.755 681.517 360.811C681.517 402.664 677.492 435.319 669.443 458.775C661.499 482.232 649.848 493.96 634.491 493.96H571.895ZM608.753 380.128H631.313C635.444 380.128 638.515 376.908 640.528 370.469C642.646 364.03 643.705 354.602 643.705 342.184C643.705 329.766 642.646 320.337 640.528 313.898C638.515 307.459 635.444 304.24 631.313 304.24H606.211V196.617H626.229C630.466 196.617 633.537 193.627 635.444 187.648C637.456 181.209 638.462 172.241 638.462 160.742C638.462 148.784 637.456 139.816 635.444 133.837C633.537 127.858 630.466 124.868 626.229 124.868H608.753V380.128Z"/>
<path d="M509.992 493.96V11.0361H547.486V493.96H509.992Z"/>
<path d="M439.209 505C430.207 505 421.892 499.021 414.266 487.063C406.746 474.645 400.179 457.168 394.566 434.631C389.058 412.095 384.769 385.419 381.697 354.604C378.626 323.789 377.09 289.754 377.09 252.5C377.09 215.246 378.626 181.211 381.697 150.396C384.769 119.581 389.111 92.9053 394.725 70.3689C400.338 47.8324 406.958 30.5852 414.584 18.6271C422.316 6.20904 430.789 0 440.004 0C451.019 0 460.816 8.04864 469.395 24.1461C478.08 40.2435 485.23 63.24 490.843 93.1353L466.853 184.891C463.358 167.414 459.545 154.306 455.414 145.567C451.39 136.368 446.888 131.769 441.91 131.769C437.78 131.769 434.019 134.529 430.63 140.048C427.347 145.567 424.54 153.616 422.21 164.194C419.88 174.772 418.079 187.42 416.808 202.138C415.537 216.856 414.902 233.643 414.902 252.5C414.902 270.437 415.537 286.994 416.808 302.172C418.079 316.89 419.88 329.538 422.21 340.116C424.54 350.694 427.294 358.973 430.471 364.952C433.755 370.471 437.409 373.231 441.434 373.231C445.67 373.231 449.801 370.241 453.826 364.262C457.851 357.823 462.14 347.015 466.694 331.837L487.666 443.6C480.887 463.377 473.155 478.554 464.47 489.133C455.785 499.711 447.365 505 439.209 505ZM455.097 422.903V239.392H487.666V443.6L455.097 422.903Z"/>
<path d="M247.494 493.96V11.0361H278.316L334.875 304.93H320.576V11.0361H357.117V493.96H326.295L269.736 200.066H284.035V493.96H247.494Z"/>
<path d="M101.066 493.96L149.682 11.0361H186.54L235.156 493.96H196.39L160.485 88.304H175.101L139.196 493.96H101.066ZM129.981 409.793L139.514 292.512H190.671L200.203 409.793H129.981Z"/>
<path d="M32.5691 493.96V137.286H0V11.0361H102.632V137.286H70.0632V493.96H32.5691Z"/>
</svg>
