<svg viewBox="0 0 898 505" xmlns="http://www.w3.org/2000/svg">
<path d="M769.992 493.96V11.0366H829.672C843.165 11.0366 855.043 20.9251 865.307 40.7019C875.571 60.0189 883.586 87.6144 889.352 123.489C895.118 159.363 898.001 202.136 898.001 251.808C898.001 301.941 895.118 345.174 889.352 381.508C883.586 417.382 875.571 445.208 865.307 464.985C855.043 484.302 843.165 493.96 829.672 493.96H769.992ZM810.817 367.02H827.942C833.708 367.02 838.725 362.651 842.992 353.912C847.374 345.174 850.776 332.296 853.198 315.278C855.62 297.801 856.831 276.645 856.831 251.808C856.831 227.432 855.62 206.736 853.198 189.718C850.776 172.701 847.374 159.823 842.992 151.084C838.725 142.346 833.708 137.977 827.942 137.977H810.817V367.02Z"/>
<path d="M684.042 190.408H738.014V307.69H684.042V190.408ZM686.81 371.16H747.355V493.96H646.678V11.0366H745.106V133.837H686.81V371.16Z"/>
<path d="M552.868 493.96V137.287H517.406V11.0366H629.154V137.287H593.692V493.96H552.868Z"/>
<path d="M452.803 505C442.655 505 432.852 500.401 423.396 491.202C413.939 482.004 406.155 470.046 400.043 455.328L413.19 336.667C418.956 350.005 425.356 360.813 432.391 369.092C439.541 376.91 446.461 380.82 453.149 380.82C457.07 380.82 460.126 379.9 462.317 378.06C464.624 375.76 466.296 372.771 467.334 369.092C468.372 364.952 468.891 360.123 468.891 354.604C468.891 345.865 467.68 338.966 465.258 333.907C462.836 328.848 459.607 324.709 455.571 321.489C451.65 317.81 447.325 314.13 442.597 310.451C437.869 306.311 433.083 301.022 428.24 294.583C423.511 288.144 419.129 279.636 415.093 269.057C411.172 258.479 408 244.681 405.579 227.664C403.157 210.187 401.946 188.57 401.946 162.814C401.946 132.919 404.022 105.783 408.173 81.4071C412.44 56.5711 418.725 36.7942 427.029 22.0765C435.447 7.35881 445.884 0 458.339 0C466.527 0 474.599 3.44943 482.557 10.3483C490.514 17.2472 497.664 27.8255 504.007 42.0832L491.725 160.055C485.728 148.097 479.904 139.128 474.253 133.149C468.718 127.17 463.298 124.18 457.993 124.18C454.072 124.18 450.958 125.56 448.652 128.32C446.345 131.079 444.673 134.759 443.635 139.358C442.713 143.957 442.251 149.016 442.251 154.536C442.251 162.814 443.462 169.483 445.884 174.542C448.306 179.142 451.477 183.051 455.398 186.27C459.434 189.49 463.817 192.939 468.545 196.619C473.389 200.298 478.174 205.357 482.903 211.796C487.631 218.235 491.956 226.744 495.877 237.322C499.913 247.901 503.142 261.698 505.564 278.716C507.985 295.733 509.196 316.89 509.196 342.186C509.196 371.621 507.063 398.757 502.796 423.593C498.644 447.969 492.417 467.746 484.114 482.924C475.81 497.641 465.374 505 452.803 505Z"/>
<path d="M323.033 504.998C304.466 504.998 289.993 484.992 279.614 444.978C269.234 404.964 264.045 348.853 264.045 276.645V11.0366H304.869V271.815C304.869 308.609 306.542 334.825 309.886 350.463C313.23 365.64 317.728 373.229 323.379 373.229C329.145 373.229 333.642 365.64 336.871 350.463C340.216 334.825 341.888 308.609 341.888 271.815V11.0366H382.021V276.645C382.021 348.853 376.831 404.964 366.452 444.978C356.073 484.992 341.6 504.998 323.033 504.998Z"/>
<path d="M129.271 493.96V11.0366H187.567C198.869 11.0366 208.614 18.3954 216.802 33.1131C225.105 47.8308 231.506 68.9874 236.003 96.5831C240.501 123.719 242.75 155.914 242.75 193.168C242.75 230.422 240.501 262.617 236.003 289.753C231.506 316.428 225.105 336.895 216.802 351.153C208.614 365.411 198.869 372.539 187.567 372.539H151.932L170.096 305.62V493.96H129.271ZM201.752 493.96L171.999 318.038H215.245L245.344 493.96H201.752ZM170.096 323.557L151.932 249.739H184.973C190.623 249.739 194.775 244.68 197.427 234.561C200.195 224.443 201.579 210.645 201.579 193.168C201.579 175.691 200.195 161.893 197.427 151.774C194.775 141.656 190.623 136.597 184.973 136.597H151.932L170.096 62.7784V323.557Z"/>
<path d="M35.4619 493.96V137.287H0V11.0366H111.748V137.287H76.2863V493.96H35.4619Z"/>
</svg>
