<svg viewBox="0 0 138 66" xmlns="http://www.w3.org/2000/svg">
<path d="M104.638 65.2485C99.9077 65.2485 95.5148 64.4498 91.4598 62.8524C87.4048 61.1935 83.872 58.8895 80.8615 55.9405C77.851 52.9914 75.5163 49.5508 73.8574 45.6187C72.1986 41.6251 71.3691 37.2936 71.3691 32.6242C71.3691 27.9549 72.1986 23.6541 73.8574 19.722C75.5163 15.7285 77.851 12.2571 80.8615 9.30805C83.872 6.35897 87.4048 4.08571 91.4598 2.48829C95.5148 0.829431 99.9077 0 104.638 0C109.431 0 113.854 0.829431 117.909 2.48829C121.964 4.08571 125.466 6.35897 128.415 9.30805C131.426 12.2571 133.761 15.7285 135.42 19.722C137.14 23.6541 138 27.9549 138 32.6242C138 37.2936 137.14 41.6251 135.42 45.6187C133.761 49.5508 131.426 52.9914 128.415 55.9405C125.466 58.8895 121.964 61.1935 117.909 62.8524C113.854 64.4498 109.431 65.2485 104.638 65.2485ZM104.638 62.3916C108.939 62.3916 112.933 61.6543 116.619 60.1798C120.306 58.7052 123.5 56.6163 126.204 53.913C128.968 51.2096 131.088 48.0762 132.563 44.5127C134.099 40.8878 134.867 36.925 134.867 32.6242C134.867 28.3235 134.099 24.3914 132.563 20.8279C131.088 17.203 128.968 14.0389 126.204 11.3355C123.5 8.63222 120.306 6.54329 116.619 5.06874C112.933 3.5942 108.939 2.85693 104.638 2.85693C100.399 2.85693 96.4364 3.5942 92.75 5.06874C89.0636 6.54329 85.8381 8.63222 83.0733 11.3355C80.37 14.0389 78.2503 17.203 76.7144 20.8279C75.2398 24.3914 74.5025 28.3235 74.5025 32.6242C74.5025 36.925 75.2398 40.8878 76.7144 44.5127C78.2503 48.0762 80.37 51.2096 83.0733 53.913C85.8381 56.6163 89.0636 58.7052 92.75 60.1798C96.4364 61.6543 100.399 62.3916 104.638 62.3916Z" />
<path d="M33.5458 65.2485C28.7536 65.2485 24.2992 64.4498 20.1828 62.8524C16.1278 61.1935 12.5643 58.8895 9.49236 55.9405C6.48184 52.9914 4.14715 49.5508 2.48829 45.6187C0.82943 41.6251 0 37.2936 0 32.6242C0 27.9549 0.82943 23.6541 2.48829 19.722C4.14715 15.7285 6.48184 12.2571 9.49236 9.30805C12.5643 6.35897 16.1278 4.08571 20.1828 2.48829C24.2992 0.829431 28.7536 0 33.5458 0C38.0309 0 42.2395 0.706551 46.1716 2.11965C50.1037 3.53276 53.4522 5.65241 56.2169 8.47862L54.3737 10.5983C51.4247 7.77207 48.2298 5.77529 44.7892 4.60795C41.3486 3.4406 37.6315 2.85693 33.638 2.85693C29.2758 2.85693 25.2208 3.62492 21.473 5.1609C17.7867 6.63545 14.5611 8.72438 11.7963 11.4277C9.03157 14.131 6.8812 17.2952 5.34522 20.9201C3.87067 24.4835 3.1334 28.3849 3.1334 32.6242C3.1334 36.8636 3.87067 40.7957 5.34522 44.4206C6.8812 47.9841 9.03157 51.1175 11.7963 53.8208C14.5611 56.5241 17.7867 58.6438 21.473 60.1798C25.2208 61.6543 29.2758 62.3916 33.638 62.3916C37.5701 62.3916 41.2872 61.8079 44.7892 60.6406C48.3527 59.4118 51.5168 57.415 54.2816 54.6502L56.1248 56.9542C53.2985 59.719 49.9194 61.8079 45.9873 63.221C42.0552 64.5727 37.908 65.2485 33.5458 65.2485ZM53.1757 56.7699V33.085H56.1248V56.9542L53.1757 56.7699Z" />
</svg>
