<svg viewBox="0 0 292 23" fill="none" xmlns="http://www.w3.org/2000/svg">
<path d="M274.983 0.493225H282.258V16.4305H292V22.0717H274.983V0.493225Z"/>
<path d="M263.619 18.3109H255.419L253.971 22.0717H246.572L256.005 0.493225H263.157L272.59 22.0717H265.068L263.619 18.3109ZM261.616 13.0704L259.519 7.64496L257.423 13.0704H261.616Z"/>
<path d="M233.281 6.13446H226.962V0.493225H246.876V6.13446H240.556V22.0717H233.281V6.13446Z"/>
<path d="M216.586 0.493225H223.861V22.0717H216.586V0.493225Z"/>
<path d="M205.934 10.6968H212.253V19.8214C210.979 20.7051 209.499 21.3833 207.814 21.8559C206.129 22.3286 204.474 22.5649 202.851 22.5649C200.549 22.5649 198.484 22.0923 196.655 21.1469C194.826 20.181 193.387 18.8452 192.339 17.1395C191.312 15.4132 190.798 13.4609 190.798 11.2825C190.798 9.10407 191.312 7.16201 192.339 5.45628C193.387 3.73 194.836 2.39419 196.686 1.44884C198.556 0.482947 200.662 0 203.005 0C205.122 0 207.013 0.359641 208.677 1.07892C210.362 1.77766 211.76 2.8052 212.87 4.16157L208.215 8.26148C206.858 6.67906 205.245 5.88785 203.375 5.88785C201.772 5.88785 200.498 6.37079 199.553 7.33669C198.607 8.30258 198.135 9.61784 198.135 11.2825C198.135 12.906 198.597 14.211 199.522 15.1974C200.467 16.1839 201.721 16.6771 203.283 16.6771C204.207 16.6771 205.091 16.5024 205.934 16.153V10.6968Z"/>
<path d="M179.65 0.493225H186.925V22.0717H179.65V0.493225Z"/>
<path d="M152.949 0.493225H163.584C165.989 0.493225 168.106 0.935071 169.935 1.81876C171.784 2.6819 173.212 3.92523 174.219 5.54876C175.247 7.17228 175.761 9.08352 175.761 11.2825C175.761 13.4814 175.247 15.3927 174.219 17.0162C173.212 18.6397 171.784 19.8933 169.935 20.777C168.106 21.6402 165.989 22.0717 163.584 22.0717H152.949V0.493225ZM163.276 16.3997C164.838 16.3997 166.081 15.9578 167.006 15.0741C167.951 14.1699 168.424 12.906 168.424 11.2825C168.424 9.65895 167.951 8.40534 167.006 7.52165C166.081 6.61741 164.838 6.16529 163.276 6.16529H160.224V16.3997H163.276Z"/>
<path d="M126.424 22.5649C124.102 22.5649 122.016 22.082 120.167 21.1161C118.317 20.1502 116.868 18.8144 115.82 17.1087C114.772 15.3824 114.248 13.4403 114.248 11.2825C114.248 9.12462 114.772 7.19283 115.82 5.4871C116.868 3.76082 118.317 2.41474 120.167 1.44884C122.016 0.482947 124.102 0 126.424 0C128.747 0 130.833 0.482947 132.682 1.44884C134.532 2.41474 135.981 3.76082 137.029 5.4871C138.077 7.19283 138.601 9.12462 138.601 11.2825C138.601 13.4403 138.077 15.3824 137.029 17.1087C135.981 18.8144 134.532 20.1502 132.682 21.1161C130.833 22.082 128.747 22.5649 126.424 22.5649ZM126.424 16.6771C127.329 16.6771 128.14 16.4613 128.86 16.0297C129.6 15.5776 130.185 14.9508 130.617 14.1493C131.048 13.3273 131.264 12.3717 131.264 11.2825C131.264 10.1933 131.048 9.24793 130.617 8.44644C130.185 7.6244 129.6 6.9976 128.86 6.56603C128.14 6.11391 127.329 5.88785 126.424 5.88785C125.52 5.88785 124.698 6.11391 123.958 6.56603C123.239 6.9976 122.664 7.6244 122.232 8.44644C121.801 9.24793 121.585 10.1933 121.585 11.2825C121.585 12.3717 121.801 13.3273 122.232 14.1493C122.664 14.9508 123.239 15.5776 123.958 16.0297C124.698 16.4613 125.52 16.6771 126.424 16.6771Z"/>
<path d="M104.459 10.6968H110.778V19.8214C109.504 20.7051 108.025 21.3833 106.339 21.8559C104.654 22.3286 103 22.5649 101.376 22.5649C99.0747 22.5649 97.0093 22.0923 95.1803 21.1469C93.3512 20.181 91.9127 18.8452 90.8646 17.1395C89.837 15.4132 89.3232 13.4609 89.3232 11.2825C89.3232 9.10407 89.837 7.16201 90.8646 5.45628C91.9127 3.73 93.3615 2.39419 95.2111 1.44884C97.0812 0.482947 99.1877 0 101.531 0C103.647 0 105.538 0.359641 107.203 1.07892C108.888 1.77766 110.285 2.8052 111.395 4.16157L106.74 8.26148C105.384 6.67906 103.771 5.88785 101.9 5.88785C100.297 5.88785 99.0233 6.37079 98.0779 7.33669C97.1326 8.30258 96.6599 9.61784 96.6599 11.2825C96.6599 12.906 97.1223 14.211 98.0471 15.1974C98.9925 16.1839 100.246 16.6771 101.808 16.6771C102.733 16.6771 103.616 16.5024 104.459 16.153V10.6968Z"/>
<path d="M79.1232 18.3109H70.9234L69.4745 22.0717H62.0762L71.5091 0.493225H78.6608L88.0937 22.0717H80.572L79.1232 18.3109ZM77.1195 13.0704L75.0233 7.64496L72.9271 13.0704H77.1195Z"/>
<path d="M38.0186 0.493225H48.6537C51.0581 0.493225 53.1749 0.935071 55.0039 1.81876C56.8535 2.6819 58.2818 3.92523 59.2888 5.54876C60.3163 7.17228 60.8301 9.08352 60.8301 11.2825C60.8301 13.4814 60.3163 15.3927 59.2888 17.0162C58.2818 18.6397 56.8535 19.8933 55.0039 20.777C53.1749 21.6402 51.0581 22.0717 48.6537 22.0717H38.0186V0.493225ZM48.3454 16.3997C49.9073 16.3997 51.1506 15.9578 52.0754 15.0741C53.0207 14.1699 53.4934 12.906 53.4934 11.2825C53.4934 9.65895 53.0207 8.40534 52.0754 7.52165C51.1506 6.61741 49.9073 6.16529 48.3454 6.16529H45.2936V16.3997H48.3454Z"/>
<path d="M33.28 0.493225V22.0717H27.2997L19.0998 12.2689V22.0717H12.0098V0.493225H17.9901L26.1899 10.296V0.493225H33.28Z"/>
<path d="M0 0.493225H7.27504V22.0717H0V0.493225Z"/>
</svg>
